<?xml version="1.0" encoding="utf-8"?>
<!-- Generator: Adobe Illustrator 27.8.0, SVG Export Plug-In . SVG Version: 6.00 Build 0)  -->
<svg version="1.1" id="Layer_1" xmlns="http://www.w3.org/2000/svg" xmlns:xlink="http://www.w3.org/1999/xlink" x="0px" y="0px"
	 viewBox="0 0 50 50" style="enable-background:new 0 0 50 50;" xml:space="preserve">
<style type="text/css">
	.st0{fill:#52A105;}
</style>
<g>
	<polygon class="st0" points="28.5,23 23.7,18.3 26.3,15.6 35.6,24.9 26.3,34.2 23.7,31.6 28.5,26.8 3.5,26.8 3.5,23 	"/>
	<path class="st0" d="M28.2,39.5c8,0,14.5-6.5,14.5-14.5s-6.5-14.5-14.5-14.5c-5.6,0-10.7,3.2-13.1,8.3l-3.4-1.6
		c3-6.3,9.5-10.4,16.5-10.4c10.1,0,18.3,8.2,18.3,18.3c0,10.1-8.2,18.3-18.3,18.3c-7.2,0-13.8-4.3-16.7-10.9l3.4-1.5
		C17.2,36.1,22.5,39.5,28.2,39.5z"/>
</g>
</svg>
