<?xml version="1.0" encoding="utf-8"?>
<!-- Generator: Adobe Illustrator 27.8.0, SVG Export Plug-In . SVG Version: 6.00 Build 0)  -->
<svg version="1.1" id="Layer_1" xmlns="http://www.w3.org/2000/svg" xmlns:xlink="http://www.w3.org/1999/xlink" x="0px" y="0px"
	 viewBox="0 0 50 50" style="enable-background:new 0 0 50 50;" xml:space="preserve">
<style type="text/css">
	.st0{fill:#809BAD;}
</style>
<path class="st0" d="M31,24.3h-1.9c3.8-1.6,6.4-5.4,6.4-9.7C35.6,8.7,30.8,4,25,4S14.4,8.7,14.4,14.6c0,4.4,2.6,8.1,6.4,9.7H19
	c-5.5,0-10,4.5-10,10v10.2c0,0.9,0.7,1.6,1.6,1.6s1.6-0.7,1.6-1.6V34.2c0-3.8,3.1-6.8,6.8-6.8H31c3.8,0,6.8,3.1,6.8,6.8v10.2
	c0,0.9,0.7,1.6,1.6,1.6c0.9,0,1.6-0.7,1.6-1.6V34.2C41,28.7,36.5,24.3,31,24.3z M17.5,14.6c0-4.1,3.3-7.5,7.5-7.5s7.5,3.3,7.5,7.5
	S29.1,22,25,22S17.5,18.7,17.5,14.6z"/>
</svg>
