<?xml version="1.0" encoding="utf-8"?>
<!-- Generator: Adobe Illustrator 27.8.0, SVG Export Plug-In . SVG Version: 6.00 Build 0)  -->
<svg version="1.1" id="Layer_1" xmlns="http://www.w3.org/2000/svg" xmlns:xlink="http://www.w3.org/1999/xlink" x="0px" y="0px"
	 viewBox="0 0 50 50" style="enable-background:new 0 0 50 50;" xml:space="preserve">
<style type="text/css">
	.st0{fill:#809BAD;}
</style>
<path class="st0" d="M41.3,24.8c-0.2-0.2-3.4-3.8-8.1-6.3l2-2c0.5-0.5,0.5-1.3,0-1.7s-1.3-0.5-1.7,0l-2.7,2.7
	C29,16.8,27,16.4,25,16.4c-9,0-16,8.1-16.3,8.4L8,25.6l0.7,0.8c0.2,0.2,3,3.4,7.3,5.8l-1.2,1.2c-0.5,0.5-0.5,1.3,0,1.7
	c0.2,0.2,0.6,0.4,0.9,0.4c0.3,0,0.6-0.1,0.9-0.4l1.8-1.8c2,0.8,4.3,1.4,6.7,1.4c8.9,0,16-8.1,16.3-8.4l0.7-0.8L41.3,24.8z
	 M29.7,25.6c0,2.6-2.1,4.7-4.7,4.7c-1,0-1.9-0.3-2.7-0.9l6.5-6.5C29.4,23.7,29.7,24.6,29.7,25.6z M20.3,25.6c0-2.6,2.1-4.7,4.7-4.7
	c0.7,0,1.3,0.2,1.9,0.4l-6.2,6.2C20.5,26.9,20.3,26.3,20.3,25.6z M11.3,25.6c1.6-1.6,5.5-5,10.3-6.3c-2.2,1.2-3.7,3.6-3.7,6.3
	c0,1.4,0.4,2.6,1.1,3.7l-1.1,1.1C14.8,28.9,12.5,26.8,11.3,25.6z M28.4,31.9c2.2-1.2,3.7-3.6,3.7-6.3c0-1.7-0.6-3.2-1.6-4.5l0.8-0.8
	c3.4,1.6,6.1,4,7.3,5.2C37.1,27.2,33.2,30.7,28.4,31.9z"/>
</svg>
