<?xml version="1.0" encoding="utf-8"?>
<!-- Generator: Adobe Illustrator 27.8.0, SVG Export Plug-In . SVG Version: 6.00 Build 0)  -->
<svg version="1.1" id="Layer_1" xmlns="http://www.w3.org/2000/svg" xmlns:xlink="http://www.w3.org/1999/xlink" x="0px" y="0px"
	 viewBox="0 0 151.7 170.6" style="enable-background:new 0 0 151.7 170.6;" xml:space="preserve">
<style type="text/css">
	.st0{fill:#FFFFFF;}
</style>
<g>
	<path class="st0" d="M117.3,35.1v-8.3c0-5-4.1-9.1-9.1-9.1H62.7c-5,0-9.1,4.1-9.1,9.1v22.2c-7,1.2-12.3,7.3-12.3,14.7
		c0,7.3,5.3,13.4,12.3,14.7v9.8c-4.7-3.8-10.7-6-17.2-6c-15.3,0-27.7,12.4-27.7,27.7s12.4,27.7,27.7,27.7c6.5,0,12.5-2.3,17.2-6
		v12.2c0,5,4.1,9.1,9.1,9.1h45.5c5,0,9.1-4.1,9.1-9.1v-21.4c2.7-3.2,7-8.6,11.3-15.4c4.1-6.5,7.4-13,9.8-19.2
		c3-7.9,4.5-15.5,4.5-22.5C143,50,131.8,37.4,117.3,35.1z M46.4,63.7c0-5.4,4.4-9.8,9.8-9.8s9.8,4.4,9.8,9.8s-4.4,9.8-9.8,9.8
		S46.4,69.1,46.4,63.7z M36.4,132.4c-12.4,0-22.6-10.1-22.6-22.6S24,87.3,36.4,87.3S59,97.4,59,109.9S48.8,132.4,36.4,132.4z
		 M108.2,147.7H62.7c-2.2,0-4-1.8-4-4v-17.5c3.4-4.6,5.3-10.2,5.3-16.3c0-6.1-2-11.8-5.3-16.3V78.4c7-1.2,12.3-7.3,12.3-14.7
		c0-7.3-5.3-13.4-12.3-14.7V26.9c0-2.2,1.8-4,4-4h45.5c2.2,0,4,1.8,4,4v7.9C95.6,35,82.1,48.5,82.1,65.2c0,7,1.5,14.6,4.5,22.5
		c2.4,6.2,5.7,12.7,9.8,19.2c6.8,10.7,13.5,17.8,14.2,18.6l0,0.8c0.3,0,0.6,0,0.8,0l0.8,0.8v16.5
		C112.2,145.9,110.4,147.7,108.2,147.7z M124.4,104.1c-4.6,7.3-9.3,13-11.8,15.9c-2.5-2.9-7.2-8.6-11.8-15.9
		c-6.1-9.7-13.5-24.3-13.5-38.9c0-14,11.3-25.3,25.3-25.3s25.3,11.3,25.3,25.3C137.8,79.8,130.5,94.4,124.4,104.1z"/>
	<path class="st0" d="M112.5,48.9c-8.2,0-14.9,6.7-14.9,14.9c0,8.2,6.7,14.9,14.9,14.9s14.9-6.7,14.9-14.9
		C127.4,55.5,120.7,48.9,112.5,48.9z M112.5,73.5c-5.4,0-9.8-4.4-9.8-9.8s4.4-9.8,9.8-9.8s9.8,4.4,9.8,9.8S117.9,73.5,112.5,73.5z"
		/>
	<path class="st0" d="M68.2,118C68.2,118,68.2,118.1,68.2,118l-5.1-0.2c0,0.1,0,0.1,0,0.2c0,3,3.4,4.2,4.5,4.6l1.7-4.8
		c-1.1-0.4-1.4-0.7-1.4-0.7C67.9,117.2,68.2,117.5,68.2,118z"/>
	<path class="st0" d="M70.3,111.3c-1,0.6-2.1,1.2-3.2,1.8l-0.1,0l2.4,4.5l0,0c1.2-0.6,2.4-1.3,3.4-1.9L70.3,111.3z"/>
	<path class="st0" d="M66.2,91.2c-1.2-0.2-2.5-0.4-3.9-0.6l-0.7,5.1c1.3,0.2,2.5,0.4,3.7,0.6L66.2,91.2z"/>
	<path class="st0" d="M74,93.1c-1.2-0.4-2.5-0.7-3.9-1.1l-1.2,5c1.3,0.3,2.5,0.6,3.5,1L74,93.1z"/>
	<path class="st0" d="M81.8,97.2c-1-1-2.3-1.8-3.9-2.6l-2.3,4.6c1.1,0.5,1.9,1.1,2.5,1.7L81.8,97.2z"/>
	<path class="st0" d="M76.2,107.1c-0.8,0.7-1.7,1.5-2.8,2.2l3,4.2c1.2-0.9,2.3-1.8,3.3-2.6L76.2,107.1z"/>
	<path class="st0" d="M95.1,126c1.3,0.1,2.6,0.1,3.9,0.2l0.2-5.1c-1.3,0-2.6-0.1-3.8-0.1L95.1,126z"/>
	<path class="st0" d="M71.6,123.7c1.2,0.2,2.5,0.5,4,0.7l0.7-5.1c-1.4-0.2-2.6-0.4-3.7-0.6L71.6,123.7z"/>
	<path class="st0" d="M87.3,125.6c1.2,0.1,2.6,0.2,3.9,0.2l0.3-5.1c-1.3-0.1-2.6-0.2-3.8-0.2L87.3,125.6z"/>
	<path class="st0" d="M102.9,126.2c1.3,0,2.6,0.1,3.9,0.1l0.1-5.1c-1.3,0-2.6,0-3.8-0.1L102.9,126.2z"/>
	<path class="st0" d="M79.1,102.5L79.1,102.5c0,0.6-0.3,1.3-0.8,2.1l4.3,2.8c1.1-1.6,1.6-3.3,1.6-4.9c0-0.1,0-0.1,0-0.2L79.1,102.5z
		"/>
	<path class="st0" d="M79.5,124.9c1.2,0.1,2.5,0.3,3.9,0.4l0.4-5.1c-1.3-0.1-2.6-0.2-3.8-0.4L79.5,124.9z"/>
	<path class="st0" d="M28.9,101.1h2.9c3.6,0,5.8,1.2,6.4,3.6h-9.3v2.1h9.5c-0.3,2.9-2.7,4.7-7.2,4.7h-2.3v2.6
		c3.9,4.2,6.9,7.8,10.2,11.7h4c-3.5-4.3-7-8.5-10.3-11.9c5.3-0.2,8.7-2.9,9.1-7.1h4.5v-2.1h-4.5c-0.2-1.9-1.1-3.3-2.3-4.2h6.9v-2.1
		H28.9V101.1z"/>
</g>
</svg>
