<?xml version="1.0" encoding="utf-8"?>
<!-- Generator: Adobe Illustrator 27.8.0, SVG Export Plug-In . SVG Version: 6.00 Build 0)  -->
<svg version="1.1" id="Layer_1" xmlns="http://www.w3.org/2000/svg" xmlns:xlink="http://www.w3.org/1999/xlink" x="0px" y="0px"
	 viewBox="0 0 50 50" style="enable-background:new 0 0 50 50;" xml:space="preserve">
<style type="text/css">
	.st0{fill:#809BAD;}
</style>
<path class="st0" d="M41.3,24.2C41,23.9,34,15.8,25,15.8S9,23.9,8.7,24.2L8,25l0.7,0.8C9,26.1,16,34.2,25,34.2s16-8.1,16.3-8.4
	L42,25L41.3,24.2z M25,29.7c-2.6,0-4.7-2.1-4.7-4.7c0-2.6,2.1-4.7,4.7-4.7s4.7,2.1,4.7,4.7C29.7,27.6,27.6,29.7,25,29.7z M21.6,18.7
	c-2.2,1.2-3.7,3.6-3.7,6.3c0,2.7,1.5,5.1,3.7,6.3c-4.8-1.2-8.7-4.7-10.3-6.3C12.9,23.4,16.8,19.9,21.6,18.7z M28.4,31.3
	c2.2-1.2,3.7-3.6,3.7-6.3c0-2.7-1.5-5.1-3.7-6.3c4.8,1.2,8.7,4.7,10.3,6.3C37.1,26.6,33.2,30.1,28.4,31.3z"/>
</svg>
