<?xml version="1.0" encoding="utf-8"?>
<!-- Generator: Adobe Illustrator 27.8.0, SVG Export Plug-In . SVG Version: 6.00 Build 0)  -->
<svg version="1.1" id="Layer_1" xmlns="http://www.w3.org/2000/svg" xmlns:xlink="http://www.w3.org/1999/xlink" x="0px" y="0px"
	 viewBox="0 0 50 50" style="enable-background:new 0 0 50 50;" xml:space="preserve">
<style type="text/css">
	.st0{fill:#809BAD;}
</style>
<g>
	<path class="st0" d="M33.7,21.6h-1v-8.5c0-4.2-3.4-7.6-7.6-7.6c-4.2,0-7.6,3.4-7.6,7.6v8.5h-1c-3.5,0-6.3,2.8-6.3,6.3v16.6h30V27.9
		C40,24.4,37.2,21.6,33.7,21.6z M20.2,13.1c0-2.7,2.2-4.8,4.8-4.8s4.8,2.2,4.8,4.8v8.5h-9.7V13.1z M37.1,41.4H12.9V27.9
		c0-1.9,1.5-3.4,3.4-3.4h17.3c1.9,0,3.4,1.5,3.4,3.4V41.4z"/>
	<path class="st0" d="M25.1,27.2c-1.8,0-3.2,1.4-3.2,3.2c0,1.3,0.7,2.4,1.8,2.9v5.6h2.7v-5.6c1.1-0.5,1.8-1.6,1.8-2.9
		C28.3,28.7,26.9,27.2,25.1,27.2z"/>
</g>
</svg>
