<?xml version="1.0" encoding="utf-8"?>
<!-- Generator: Adobe Illustrator 27.8.0, SVG Export Plug-In . SVG Version: 6.00 Build 0)  -->
<svg version="1.1" id="Layer_1" xmlns="http://www.w3.org/2000/svg" xmlns:xlink="http://www.w3.org/1999/xlink" x="0px" y="0px"
	 viewBox="0 0 55.3 50" style="enable-background:new 0 0 55.3 50;" xml:space="preserve">
<style type="text/css">
	.st0{fill:#fff;}
</style>
<g>
	<path class="st0" d="M21.1,39.5c-8,0-14.5-6.5-14.5-14.5s6.5-14.5,14.5-14.5c5.5,0,10.7,3.2,13.1,8.2l3.3-1.6
		c-3-6.3-9.5-10.3-16.4-10.3C11.1,6.8,2.9,15,2.9,25s8.2,18.2,18.2,18.2c7.2,0,13.8-4.3,16.7-10.9l-3.4-1.5
		C32.1,36.1,26.8,39.5,21.1,39.5z"/>
	<polygon class="st0" points="43.1,15.7 40.5,18.3 45.3,23.1 16.4,23.1 16.4,26.8 45.3,26.8 40.5,31.5 43.1,34.1 52.4,24.9 	"/>
</g>
</svg>
