<?xml version="1.0" encoding="utf-8"?>
<!-- Generator: Adobe Illustrator 27.8.0, SVG Export Plug-In . SVG Version: 6.00 Build 0)  -->
<svg version="1.1" id="Layer_1" xmlns="http://www.w3.org/2000/svg" xmlns:xlink="http://www.w3.org/1999/xlink" x="0px" y="0px"
	 viewBox="0 0 70 70" style="enable-background:new 0 0 70 70;" xml:space="preserve">
<style type="text/css">
	.st0{fill:#809BAD;}
</style>
<g>
	<path class="st0" d="M44.7,24.7H25.3c-1.6,0-2.8,1.3-2.8,2.8v15c0,1.6,1.3,2.8,2.8,2.8h19.4c1.6,0,2.8-1.3,2.8-2.8v-15
		C47.5,25.9,46.2,24.7,44.7,24.7z M45.7,42.5c0,0.6-0.5,1-1,1H25.3c-0.6,0-1-0.5-1-1v-15c0-0.6,0.5-1,1-1h19.4c0.6,0,1,0.5,1,1V42.5
		z"/>
	<path class="st0" d="M42.6,29.1L35,35l-7.6-5.9c-0.4-0.3-0.9-0.2-1.2,0.2c-0.3,0.4-0.2,0.9,0.2,1.2l8.6,6.8l8.6-6.8
		c0.4-0.3,0.5-0.9,0.2-1.2C43.5,28.9,42.9,28.8,42.6,29.1z"/>
</g>
</svg>
